<svg xmlns="http://www.w3.org/2000/svg" width="70" height="70" viewBox="0 0 70 70">
  <g id="Group_127763" data-name="Group 127763" transform="translate(-1805 -418)">
    <circle id="Ellipse_31824" data-name="Ellipse 31824" cx="35" cy="35" r="35" transform="translate(1805 418)" fill="#fff"/>
    <rect id="Rectangle_37264" data-name="Rectangle 37264" width="28" height="28" transform="translate(1829 440)" fill="#fff"/>
    <g id="Group_33031" data-name="Group 33031" transform="translate(1812.232 425.732)">
      <path id="Path_16006" data-name="Path 16006" d="M27.384,0A27.384,27.384,0,1,0,54.768,27.384,27.384,27.384,0,0,0,27.384,0ZM38.917,28.257a1.956,1.956,0,0,1-.878.878v.01L22.39,36.968a1.956,1.956,0,0,1-2.83-1.76V19.56a1.956,1.956,0,0,1,2.83-1.751l15.648,7.824A1.956,1.956,0,0,1,38.917,28.257Z" transform="translate(0)" fill="#68c6c5"/>
    </g>
  </g>
</svg>
