<svg id="noun-doctor-2831429" xmlns="http://www.w3.org/2000/svg" width="33.107" height="36" viewBox="0 0 33.107 36">
  <path id="Path_310156" data-name="Path 310156" d="M6,32.5v5.333a.76.76,0,0,0,.828.667H38.346a.744.744,0,0,0,.761-.667V32.5a8.75,8.75,0,0,0-4.569-7.347,12.329,12.329,0,0,0-3.41-1.333.847.847,0,0,0-.364-.08h0a14.428,14.428,0,0,0-3.029-.36H17.306a14.428,14.428,0,0,0-3.029.36h0a.847.847,0,0,0-.364.08,12.329,12.329,0,0,0-3.41,1.333A8.722,8.722,0,0,0,6,32.5Zm16.554-5.587L19.044,24.66h7.019ZM11.5,26.22a10.212,10.212,0,0,1,1.953-.88v1.493a1.319,1.319,0,0,0-.811,1.107,1.521,1.521,0,0,0,1.655,1.333,1.521,1.521,0,0,0,1.655-1.333,1.319,1.319,0,0,0-.811-1.107V24.9a11.64,11.64,0,0,1,1.374-.187l5.248,3.373v2.667a.847.847,0,0,0,1.655,0V28.087l5.248-3.373a11.641,11.641,0,0,1,1.374.187v3.027a3.225,3.225,0,0,0-2.9,2.92v2.52a.847.847,0,0,0,1.655,0v-2.52a1.9,1.9,0,0,1,2.069-1.667,1.9,1.9,0,0,1,2.069,1.667v2.52a.847.847,0,0,0,1.655,0v-2.52a3.225,3.225,0,0,0-2.9-2.92V25.34c3.55,1.22,5.828,4.052,5.761,7.16v4.667h-14.1V33.353a.847.847,0,0,0-1.655,0v3.813H7.655V32.5a7.442,7.442,0,0,1,3.84-6.28Zm11.058-4.28c5.418-.007,9.807-3.543,9.816-7.907V10.407c0-4.367-4.395-7.907-9.816-7.907s-9.816,3.54-9.816,7.907v3.627c.009,4.364,4.4,7.9,9.816,7.907Zm0-18.107c4.265.006,7.8,2.666,8.095,6.093a12.063,12.063,0,0,0-2.4-.2,12.681,12.681,0,0,0-3.443.613,11.946,11.946,0,0,1-2.632.52,10.038,10.038,0,0,1-3.228-.32,4.715,4.715,0,0,0,.3-1.573.847.847,0,0,0-1.655-.027,3.706,3.706,0,0,1-1.49,2.667,4.652,4.652,0,0,1-1.771.813V10.407A6.01,6.01,0,0,1,16.74,5.74a9.275,9.275,0,0,1,5.813-1.906Zm-8.161,10a6.944,6.944,0,0,0,2.913-1.213,5.427,5.427,0,0,0,.91-.893,12.746,12.746,0,0,0,3.311.48h.761a13.124,13.124,0,0,0,3.062-.6,10.25,10.25,0,0,1,2.947-.533,9.787,9.787,0,0,1,2.4.24v2.733c0,3.63-3.654,6.573-8.161,6.573s-8.161-2.943-8.161-6.573Z" transform="translate(-6 -2.5)" fill="#c2c6c6"/>
</svg>
