<svg xmlns="http://www.w3.org/2000/svg" width="24.472" height="36.442" viewBox="0 0 24.472 36.442">
  <g id="noun-family-4020792" transform="translate(-151.383 -96.854)">
    <path id="Path_310157" data-name="Path 310157" d="M174.538,116.785a11.048,11.048,0,0,0-8.016-6.575,6.863,6.863,0,0,0,3.928-7.731,7.014,7.014,0,0,0-13.664,0,6.863,6.863,0,0,0,3.928,7.731,11.043,11.043,0,0,0-8.018,6.575,11.481,11.481,0,0,0-.076,9.549,12.66,12.66,0,0,0,7.977,6.587,2.833,2.833,0,0,0,3.034-.859,2.743,2.743,0,0,0,2.158.991,2.943,2.943,0,0,0,.875-.133,12.618,12.618,0,0,0,7.953-6.57A11.52,11.52,0,0,0,174.538,116.785Zm-16.9-12.828a5.978,5.978,0,1,1,5.978,5.89A5.934,5.934,0,0,1,157.64,103.957Zm5.99,25.407a2.615,2.615,0,0,0-1.15-.787l-.345-.121c-2.772-.967-5.451-2.12-5.147-4.616a.525.525,0,0,0,0-.06,3.652,3.652,0,0,1,3.679-3.625h2.57a3.5,3.5,0,0,0,.754,0h2.564a3.652,3.652,0,0,1,3.679,3.625.548.548,0,0,0,.009.1c.274,2.476-2.387,3.625-5.137,4.584l-.329.113A2.615,2.615,0,0,0,163.63,129.364Zm-2.542-12.68a2.528,2.528,0,1,1,2.834,2.469h-.615A2.505,2.505,0,0,1,161.089,116.684Zm12.6,9.255a11.643,11.643,0,0,1-7.335,6.026,1.72,1.72,0,0,1-2.04-.7l-.044-.088a1.013,1.013,0,0,1-.04-.868,1.454,1.454,0,0,1,.89-.787l.325-.113c2.174-.761,6.218-2.175,5.8-5.67a4.667,4.667,0,0,0-4.695-4.582h-.439a3.455,3.455,0,0,0,0-4.939,3.58,3.58,0,0,0-5.013,0,3.455,3.455,0,0,0,0,4.939h-.44a4.666,4.666,0,0,0-4.694,4.6c-.4,3.479,3.644,4.891,5.819,5.651l.345.12a1.454,1.454,0,0,1,.89.787,1.02,1.02,0,0,1-.04.868l-.045.088a1.716,1.716,0,0,1-2.039.7,11.641,11.641,0,0,1-7.357-6.048,10.5,10.5,0,0,1,.083-8.734,10.258,10.258,0,0,1,9.945-6.249h.085a10.413,10.413,0,0,1,9.945,6.249A10.555,10.555,0,0,1,173.691,125.94Z" transform="translate(0 0)" fill="#68c6c5" stroke="#68c6c5" stroke-width="0.4"/>
  </g>
</svg>
